<svg width="22" height="26" viewBox="0 0 22 26" fill="none" xmlns="http://www.w3.org/2000/svg">
<path d="M0.957 2.158L11 0L21.043 2.158C21.3144 2.21634 21.5571 2.36241 21.7311 2.57211C21.9051 2.78182 22 3.04261 22 3.31145V15.1143C21.9999 16.2816 21.7018 17.4308 21.1321 18.46C20.5624 19.4892 19.7387 20.3664 18.7342 21.0139L11 26L3.26578 21.0139C2.26145 20.3665 1.4379 19.4895 0.868203 18.4605C0.29851 17.4316 0.00028888 16.2826 0 15.1155V3.31145C4.77128e-05 3.04261 0.0948908 2.78182 0.268876 2.57211C0.442861 2.36241 0.68559 2.21634 0.957 2.158Z" fill="#FFFFFF"/>
</svg>
