<svg width="7" height="16" viewBox="0 0 7 16" fill="none" xmlns="http://www.w3.org/2000/svg">
<path d="M0.0139737 3.19125C0.0725741 2.42327 0.442682 1.61829 0.988591 1.06312C2.08041 -0.0379459 3.66879 -0.309358 5.05361 0.369173C7.09846 1.37463 7.64436 4.061 6.1516 5.782C5.79074 6.19837 5.34044 6.51913 4.80379 6.7412C4.46144 6.88307 4.45835 6.88307 4.47377 6.68568C4.48303 6.59624 4.48919 6.50988 4.49228 6.49754C4.49845 6.48212 4.57864 6.43894 4.67733 6.39885C5.39596 6.10893 5.95729 5.58769 6.30272 4.89374C6.81779 3.85436 6.73452 2.6916 6.07757 1.71081C5.79691 1.29136 5.22941 0.825639 4.75135 0.625164C4.28564 0.430858 4.06049 0.387678 3.49607 0.384594C3.05503 0.384594 2.95325 0.393847 2.74044 0.455531C2.12359 0.634417 1.68254 0.887324 1.27851 1.29444C0.612315 1.96064 0.28847 2.86432 0.380997 3.80501C0.451935 4.54831 0.751105 5.18058 1.29085 5.71723C1.60852 6.03491 1.9447 6.2508 2.4536 6.45745C2.5708 6.50371 2.5708 6.50371 2.5708 6.68876L2.5708 6.87073L2.4536 6.83989C2.25929 6.78746 1.71955 6.51913 1.48207 6.35567C1.02869 6.04108 0.519788 5.43348 0.306976 4.95234C0.0633213 4.40335 -0.0353741 3.80809 0.0139737 3.19125Z" fill="#E4756D"/>
<path d="M0.014083 12.0429C0.0572622 11.5649 0.229979 11.0159 0.464381 10.6242C0.948605 9.82229 1.77518 9.1931 2.61101 8.99263L2.69737 8.97104L2.68811 9.16226L2.67886 9.35348L2.47838 9.42134C1.68265 9.68966 1.00104 10.3065 0.643266 11.0807C0.260822 11.9103 0.270074 12.9034 0.677193 13.7454C1.03496 14.4918 1.70116 15.0809 2.47222 15.3369C2.91018 15.4849 3.18467 15.5219 3.63497 15.5034C4.44612 15.4726 5.1154 15.1796 5.70449 14.6028C7.23427 13.1008 6.82407 10.5502 4.89951 9.5848C4.77922 9.52312 4.60342 9.44909 4.50781 9.41825C4.3135 9.35965 4.31042 9.35348 4.35051 9.11908C4.36593 9.00805 4.37519 8.9988 4.45538 9.0173C4.63118 9.05123 5.04138 9.22703 5.28504 9.37507C5.80319 9.68658 6.19488 10.0752 6.50948 10.5964C6.99678 11.3952 7.12632 12.3699 6.87342 13.3106C6.61742 14.2698 5.90497 15.1179 4.9982 15.5435C2.5339 16.7001 -0.220319 14.7632 0.014083 12.0429Z" fill="#E4756D"/>
<path d="M1.89209 3.20664C1.95069 3.14804 1.99387 3.14496 2.57062 3.14496L3.19055 3.14496L3.17821 2.38315C3.16896 1.96061 3.15354 1.56275 3.1412 1.49798C3.09802 1.26666 3.27074 1.07852 3.52982 1.07852C3.80123 1.07852 3.9832 1.34377 3.88142 1.5905C3.84441 1.67995 3.83515 1.8465 3.83515 2.42325L3.83515 3.14496L4.49518 3.14496C5.09044 3.14496 5.16137 3.15113 5.22614 3.20047C5.32175 3.28066 5.32175 3.44104 5.22614 3.52123C5.15829 3.57367 5.06268 3.57675 3.55449 3.57675C1.99387 3.57675 1.95069 3.57367 1.89209 3.51507C1.85816 3.48114 1.8304 3.41329 1.8304 3.36085C1.8304 3.30842 1.85816 3.24057 1.89209 3.20664Z" fill="#E4756D"/>
<path d="M3.13534 3.7619L3.43451 3.7619L3.43451 9.05136L3.43451 14.3408L3.52703 14.3408L3.61956 14.3408L3.61956 9.05136L3.61956 3.7619L3.91256 3.7619L4.20557 3.7619L4.19015 3.98705C4.18089 4.10734 4.10379 6.36808 4.02051 9.0051C3.93415 11.6421 3.85705 13.9306 3.84779 14.091L3.82929 14.3809L3.6905 14.532C3.61339 14.6122 3.5332 14.6801 3.50853 14.6801C3.4561 14.6801 3.2217 14.4087 3.20319 14.3285C3.19702 14.2915 3.11992 12.1048 3.03356 9.46773C2.9472 6.83071 2.87009 4.46819 2.85776 4.21837L2.83925 3.7619L3.13534 3.7619Z" fill="#E4756D"/>
</svg>
