<svg width="7" height="15" viewBox="0 0 7 15" fill="none" xmlns="http://www.w3.org/2000/svg">
<path d="M0.0261308 7.83279C0.189575 8.88876 0.894078 9.8164 1.90011 10.303C2.15936 10.4286 2.53698 10.5542 2.81878 10.6104L2.98222 10.6398L2.98222 10.9392L2.9794 11.2386L2.42989 11.5193C2.12555 11.6744 1.87193 11.8107 1.86629 11.8268C1.86066 11.8401 1.85784 12.5592 1.86066 13.4227L1.86911 14.992L2.70042 14.5803L3.53173 14.1686L4.05307 14.4252C4.3405 14.5669 4.71812 14.7541 4.89002 14.8396L5.20845 15L5.20845 14.3611L5.20845 13.7248L4.67303 13.4628C4.37996 13.3185 4.13197 13.1902 4.12352 13.1741C4.11224 13.1607 4.32078 13.1501 4.65894 13.1501L5.20845 13.1501L5.20281 12.479L5.19436 11.808L4.64485 11.522L4.09534 11.2359L4.09534 10.9312L4.09534 10.6264L4.21933 10.605C4.42786 10.5703 4.85056 10.4259 5.10982 10.303C5.4508 10.1372 5.68751 9.97146 5.98622 9.69076C6.48219 9.22025 6.79499 8.6642 6.94716 7.99052C7.01761 7.67506 7.01761 7.02277 6.94716 6.70732C6.84008 6.23681 6.62027 5.76363 6.34129 5.40808C6.14121 5.15411 5.70724 4.75311 5.45925 4.59806C5.10982 4.37884 4.50958 4.14359 4.18551 4.10082L4.05307 4.0821L4.0587 3.49129L4.06716 2.90049L4.44759 2.70266C4.65612 2.59305 4.91256 2.45939 5.01964 2.40592L5.20845 2.30701L4.4025 1.17084C3.96007 0.547954 3.57964 0.0213071 3.55991 0.00259414C3.53173 -0.0268124 3.37111 0.184381 2.70324 1.12272C2.24954 1.7563 1.88602 2.29097 1.89165 2.30701C1.90011 2.32305 2.14246 2.45671 2.42989 2.60375L2.95404 2.87108L2.95404 3.47526L2.95404 4.0821L2.81878 4.10082C2.74551 4.10884 2.55389 4.15963 2.39044 4.21042C1.15333 4.60073 0.260026 5.58986 0.0402209 6.81158C-0.00768505 7.07891 -0.0133212 7.57615 0.0261308 7.83279ZM0.629185 6.66722C0.767267 6.14324 1.11952 5.58986 1.52531 5.25837C1.92547 4.93222 2.28054 4.75311 2.81314 4.6141C3.12594 4.5339 3.8868 4.5339 4.20242 4.61677C5.09291 4.84935 5.76078 5.35728 6.15248 6.10582C6.63154 7.02277 6.54982 8.10012 5.93831 8.95559C5.68751 9.30847 5.2479 9.6667 4.81957 9.87254C4.65612 9.95007 4.19678 10.1025 4.12633 10.1025C4.08406 10.1025 4.08125 10.0677 4.08688 9.84848L4.09534 9.59184L4.27851 9.53036C5.06755 9.27104 5.65933 8.66152 5.85941 7.90764C5.94395 7.59486 5.94395 7.1297 5.85941 6.80356C5.68188 6.10047 5.12673 5.49095 4.42504 5.22094C4.08688 5.09262 3.92062 5.06322 3.50355 5.06322C3.02731 5.06322 2.83569 5.10599 2.43271 5.29045C1.93956 5.52036 1.57604 5.85987 1.33369 6.31968C1.14206 6.68058 1.0857 6.91584 1.08288 7.33555C1.08288 7.77398 1.13361 7.9825 1.33651 8.38082C1.4605 8.63212 1.52531 8.71766 1.71694 8.91014C1.84375 9.03579 2.03819 9.19886 2.15091 9.26837C2.3679 9.40738 2.70042 9.55174 2.87514 9.58115L2.98222 9.59986L2.98222 9.86185L2.98222 10.1238L2.81596 10.0891C1.92547 9.89126 1.14488 9.27104 0.781357 8.47172C0.522101 7.9023 0.468558 7.26604 0.629185 6.66722ZM1.68876 6.86772C1.84656 6.30364 2.32563 5.83848 2.93995 5.646C3.22739 5.55778 3.68109 5.54442 3.96853 5.61927C4.81393 5.83848 5.37753 6.53622 5.37753 7.35961C5.37753 7.65635 5.32681 7.85418 5.18309 8.13755C5.04782 8.39686 4.82238 8.64014 4.56313 8.80321C4.40532 8.90212 4.14042 9.03312 4.09252 9.03312C4.08688 9.03312 4.08125 8.91549 4.08125 8.77113L4.08125 8.50914L4.19678 8.44766C4.38841 8.3434 4.60258 8.11884 4.71812 7.89428C4.81956 7.70447 4.82802 7.66704 4.83647 7.41842C4.84493 7.22327 4.83647 7.10564 4.80266 7.00138C4.6054 6.35978 3.91217 5.96146 3.23021 6.09512C2.82441 6.17532 2.48344 6.42394 2.3059 6.7688C2.10864 7.15109 2.10019 7.52803 2.27772 7.89962C2.37635 8.10814 2.67224 8.40221 2.86387 8.48241L2.98222 8.5332L2.98222 8.7845C2.98222 8.97965 2.97377 9.03312 2.94277 9.03312C2.92023 9.03312 2.78496 8.97698 2.64124 8.90747C2.42708 8.80588 2.33126 8.74172 2.15091 8.56796C1.67185 8.10814 1.51122 7.51466 1.68876 6.86772Z" fill="#74B0DD"/>
</svg>
