<svg width="31" height="31" viewBox="0 0 31 31" fill="none" xmlns="http://www.w3.org/2000/svg">
<mask id="mask0_202_227" style="mask-type:alpha" maskUnits="userSpaceOnUse" x="10" y="6" width="18" height="22">
<path d="M10.783 7.826L19 6L27.217 7.826C27.4391 7.87536 27.6377 7.99897 27.78 8.17641C27.9224 8.35384 28 8.57452 28 8.802V18.789C27.9999 19.7767 27.756 20.7492 27.2899 21.62C26.8238 22.4908 26.1499 23.2331 25.328 23.781L19 28L12.672 23.781C11.8503 23.2332 11.1765 22.4911 10.7104 21.6205C10.2442 20.7498 10.0002 19.7776 10 18.79V8.802C10 8.57452 10.0776 8.35384 10.22 8.17641C10.3623 7.99897 10.5609 7.87536 10.783 7.826Z" fill="#FFFFFF"/>
</mask>
<g mask="url(#mask0_202_227)">
<rect x="19" y="2" width="12" height="28" fill="#FFFFFF"/>
</g>
<mask id="mask1_202_227" style="mask-type:alpha" maskUnits="userSpaceOnUse" x="0" y="0" width="31" height="31">
<path fill-rule="evenodd" clip-rule="evenodd" d="M9.77238 0.388125C11.0652 6.97002 11.6279 9.96169 11.5819 10.009C11.5504 10.0413 10.3332 9.80291 8.87716 9.47915C7.42095 9.15552 6.18163 8.89089 6.12303 8.89117C6.06429 8.89131 6.59224 10.0416 7.29627 11.4473C8.00016 12.8529 8.54816 14.0309 8.51385 14.0652C8.47954 14.0994 6.60156 13.9927 4.34064 13.8278C2.07972 13.663 0.129305 13.5487 0.00631811 13.5739C-0.116527 13.5991 1.56702 14.6607 3.74759 15.933C5.92817 17.2055 7.71225 18.2838 7.71225 18.3295C7.71225 18.3751 7.18811 18.9416 6.54734 19.5883C5.64661 20.4977 5.46249 20.7459 5.73543 20.683C6.36335 20.5383 9.18131 20.0514 9.21223 20.0823C9.22875 20.0987 8.6487 22.2075 7.9232 24.7686C7.19785 27.3297 6.62585 29.4467 6.65239 29.4731C6.6788 29.4995 8.45822 28.0476 10.6067 26.2464C12.7732 24.4302 14.5657 23.0264 14.6315 23.0943C14.6968 23.1618 15.1917 24.3243 15.7312 25.6778L16.7123 28.1385L17.6417 26.3129C18.1528 25.3087 18.6535 24.3751 18.7544 24.2382C18.9196 24.0139 19.2737 24.338 22.3266 27.5072C24.1905 29.442 25.7272 31.0137 25.7414 30.9999C25.7557 30.9861 25.0035 28.859 24.0699 26.2731C23.1364 23.6872 22.394 21.5555 22.4202 21.5359C22.4463 21.5162 24.1199 21.6709 26.139 21.8797C28.1582 22.0884 29.8254 22.2479 29.844 22.2339C29.8625 22.2201 28.3868 21.2605 26.5648 20.1018C24.7426 18.943 23.2501 17.9524 23.2481 17.9005C23.2461 17.8484 25.0326 16.659 27.218 15.2573C29.4035 13.8556 31.1033 12.6814 30.9951 12.6479C30.8871 12.6145 29.1485 12.419 27.1317 12.2137C25.1148 12.0083 23.4492 11.8248 23.4302 11.8059C23.4027 11.7785 25.1513 4.15082 25.4409 3.03443C25.4812 2.87918 24.2752 4.01942 22.7608 5.5684C21.2464 7.11737 19.9814 8.35584 19.9496 8.32056C19.9179 8.28527 19.5497 6.83284 19.1316 5.09277L18.3714 1.92905L17.2554 4.85142C16.6414 6.45868 16.0941 7.8016 16.0392 7.83561C15.9841 7.86948 14.5608 6.12038 12.8761 3.94871C11.1916 1.77691 9.78692 0 9.75473 0C9.72254 0 9.73044 0.174586 9.77238 0.388125Z" fill="#FFFFFF"/>
</mask>
<g mask="url(#mask1_202_227)">
<rect x="-6" y="-3" width="23" height="34" fill="#FFFFFF"/>
</g>
</svg>
